<svg xmlns="http://www.w3.org/2000/svg" viewBox="0 0 24 24">
  <path fill="#fff" d="M12 22a10 10 0 1110-10 10 10 0 01-10 10zm-2.29-2.333A17.9 17.9 0 018.027 13H4.062a8.008 8.008 0 005.648 6.667zM10.03 13A15.915 15.915 0 0012 19.752 15.9 15.9 0 0013.97 13h-3.94zm9.908 0h-3.965a17.9 17.9 0 01-1.683 6.667A8.008 8.008 0 0019.938 13zM4.062 11h3.965A17.9 17.9 0 019.71 4.333 8.008 8.008 0 004.062 11zm5.969 0h3.938A15.9 15.9 0 0012 4.248 15.9 15.9 0 0010.03 11zm4.259-6.667A17.9 17.9 0 0115.973 11h3.965a8.008 8.008 0 00-5.648-6.667z" data-name="Path 38212"/>
</svg>
